<svg width="718" height="718" viewBox="0 0 718 718" fill="none" xmlns="http://www.w3.org/2000/svg">
<g clip-path="url(#clip0_105_4)">
<path fill-rule="evenodd" clip-rule="evenodd" d="M89.7501 44.875C77.8485 44.875 66.4343 49.6029 58.0186 58.0186C49.6029 66.4343 44.8751 77.8484 44.8751 89.75L44.8751 628.25C44.8751 640.152 49.6029 651.566 58.0186 659.981C66.4343 668.397 77.8485 673.125 89.7501 673.125H628.25C640.152 673.125 651.566 668.397 659.981 659.981C668.397 651.566 673.125 640.152 673.125 628.25V89.75C673.125 77.8484 668.397 66.4343 659.981 58.0186C651.566 49.6029 640.152 44.875 628.25 44.875H89.7501ZM89.7501 718C65.9469 718 43.1186 708.544 26.2872 691.713C9.45584 674.881 6.10352e-05 652.053 6.10352e-05 628.25L6.10352e-05 89.75C6.10352e-05 65.9468 9.45584 43.1186 26.2872 26.2872C43.1186 9.45579 65.9469 0 89.7501 0H628.25C652.053 0 674.881 9.45579 691.713 26.2872C708.544 43.1186 718 65.9468 718 89.75V628.25C718 652.053 708.544 674.881 691.713 691.713C674.881 708.544 652.053 718 628.25 718H89.7501ZM230.927 455.302C226.714 459.515 224.347 465.229 224.347 471.188C224.347 477.146 226.714 482.86 230.927 487.073C235.14 491.286 240.854 493.653 246.813 493.653C252.771 493.653 258.485 491.286 262.698 487.073L446.506 303.22L446.506 427.434C446.506 433.385 448.87 439.092 453.078 443.3C457.286 447.508 462.993 449.872 468.944 449.872C474.895 449.872 480.602 447.508 484.81 443.3C489.017 439.092 491.381 433.385 491.381 427.434L491.381 249.056C491.381 243.105 489.017 237.398 484.81 233.191C480.602 228.983 474.895 226.619 468.944 226.619L290.566 226.619C284.615 226.619 278.908 228.983 274.7 233.191C270.492 237.398 268.128 243.105 268.128 249.056C268.128 255.007 270.492 260.714 274.7 264.922C278.908 269.13 284.615 271.494 290.566 271.494L414.78 271.494L230.927 455.302Z" fill="#D99BFF"/>
</g>
<defs>
<clipPath id="clip0_105_4">
<rect width="718" height="718" fill="white" transform="translate(6.10352e-05 718) rotate(-90)"/>
</clipPath>
</defs>
</svg>
