<svg width="76" height="61" viewBox="0 0 76 61" fill="none" xmlns="http://www.w3.org/2000/svg">
<path d="M0.5 5.4375C0.5 4.1943 0.99386 3.00201 1.87294 2.12294C2.75201 1.24386 3.9443 0.75 5.1875 0.75H70.8125C72.0557 0.75 73.248 1.24386 74.1271 2.12294C75.0061 3.00201 75.5 4.1943 75.5 5.4375C75.5 6.6807 75.0061 7.87299 74.1271 8.75206C73.248 9.63114 72.0557 10.125 70.8125 10.125H5.1875C3.9443 10.125 2.75201 9.63114 1.87294 8.75206C0.99386 7.87299 0.5 6.6807 0.5 5.4375V5.4375ZM0.5 30.4375C0.5 29.1943 0.99386 28.002 1.87294 27.1229C2.75201 26.2439 3.9443 25.75 5.1875 25.75H70.8125C72.0557 25.75 73.248 26.2439 74.1271 27.1229C75.0061 28.002 75.5 29.1943 75.5 30.4375C75.5 31.6807 75.0061 32.873 74.1271 33.7521C73.248 34.6311 72.0557 35.125 70.8125 35.125H5.1875C3.9443 35.125 2.75201 34.6311 1.87294 33.7521C0.99386 32.873 0.5 31.6807 0.5 30.4375V30.4375ZM0.5 55.4375C0.5 54.1943 0.99386 53.002 1.87294 52.1229C2.75201 51.2439 3.9443 50.75 5.1875 50.75H70.8125C72.0557 50.75 73.248 51.2439 74.1271 52.1229C75.0061 53.002 75.5 54.1943 75.5 55.4375C75.5 56.6807 75.0061 57.873 74.1271 58.7521C73.248 59.6311 72.0557 60.125 70.8125 60.125H5.1875C3.9443 60.125 2.75201 59.6311 1.87294 58.7521C0.99386 57.873 0.5 56.6807 0.5 55.4375V55.4375Z" fill="black"/>
</svg>
