<svg width="50" height="50" viewBox="0 0 711 711" fill="none" xmlns="http://www.w3.org/2000/svg">
<path d="M403.663 73.8799C277.965 73.8799 176.136 175.759 176.136 301.4C176.071 342.791 187.353 383.408 208.757 418.836L98.4451 529.147L98.829 529.531C87.0548 540.801 79.824 556.798 79.824 574.879C79.8169 609.81 107.645 637.127 142.541 637.12C160.366 637.113 176.307 629.981 187.683 618.378L187.96 618.655L301.777 504.831C333.392 520.705 368.286 528.955 403.663 528.92C529.368 528.92 631.176 427.055 631.176 301.4C631.176 175.759 529.361 73.8799 403.663 73.8799V73.8799ZM405.042 439.455C326.477 439.455 262.835 375.792 262.835 297.255C262.835 218.732 326.477 155.055 405.042 155.055C483.608 155.055 547.235 218.725 547.235 297.255C547.243 375.792 483.608 439.455 405.042 439.455Z" fill="#D36543"/>
</svg>
